<svg width="60" height="60" viewBox="0 0 60 60" fill="none" xmlns="http://www.w3.org/2000/svg">
<path d="M24.2204 30.0127L46.6663 7.56585C47.2843 6.94927 47.6243 6.12488 47.6243 5.24585C47.6243 4.36634 47.2843 3.54244 46.6663 2.92488L44.6995 0.959024C44.0824 0.340488 43.2575 0 42.3785 0C41.4995 0 40.6756 0.340488 40.058 0.959024L13.3326 27.6839C12.7126 28.3034 12.3731 29.1312 12.3756 30.0112C12.3731 30.8951 12.7121 31.722 13.3326 32.342L40.0331 59.041C40.6507 59.6595 41.4746 60 42.3541 60C43.2331 60 44.057 59.6595 44.6751 59.041L46.6414 57.0751C47.9209 55.7956 47.9209 53.7127 46.6414 52.4337L24.2204 30.0127Z" fill="#F7F7F7"/>
</svg>
